<?xml version="1.0" standalone="no"?>
<!DOCTYPE svg PUBLIC "-//W3C//DTD SVG 20010904//EN"
 "http://www.w3.org/TR/2001/REC-SVG-20010904/DTD/svg10.dtd">
<svg version="1.0" xmlns="http://www.w3.org/2000/svg"
 width="600.000000pt" height="600.000000pt" viewBox="0 0 600.000000 600.000000"
 preserveAspectRatio="xMidYMid meet">
<metadata>
Created by potrace 1.14, written by Peter Selinger 2001-2017
</metadata>
<g transform="translate(0.000000,600.000000) scale(0.100000,-0.100000)"
fill="#000000" stroke="none">
<path d="M0 3000 l0 -3000 3000 0 3000 0 0 3000 0 3000 -3000 0 -3000 0 0
-3000z m3300 1221 c0 -14 -18 -23 -31 -15 -8 4 -7 9 2 15 18 11 29 11 29 0z
m-190 -162 c0 -4 -7 -6 -15 -3 -8 4 -15 10 -15 15 0 4 7 6 15 3 8 -4 15 -10
15 -15z m-1889 -266 c78 -35 128 -88 174 -188 24 -49 53 -100 66 -112 29 -26
80 -49 129 -57 112 -18 199 -62 307 -158 66 -58 97 -73 170 -83 38 -5 52 -11
56 -25 6 -23 0 -30 -26 -30 -10 0 -32 -14 -49 -32 l-29 -31 -57 63 c-119 132
-160 168 -223 198 -168 80 -296 63 -422 -55 -71 -66 -125 -88 -224 -88 -52 0
-87 5 -94 13 -7 6 -24 12 -37 12 -37 0 -145 113 -165 174 -21 63 -22 159 -1
220 19 56 101 149 146 166 18 6 42 16 53 20 11 5 27 11 35 14 31 11 146 -2
191 -21z m2009 -64 c25 -5 76 -26 114 -46 61 -31 74 -34 100 -25 92 31 204 20
281 -29 103 -65 121 -176 86 -514 -12 -110 -21 -229 -21 -265 0 -170 -80 -269
-216 -270 -66 0 -111 29 -142 91 -18 37 -25 74 -33 190 -13 187 -4 306 27 367
13 25 22 47 21 49 -2 1 -19 -8 -38 -21 l-35 -24 -29 24 c-41 32 -49 30 -29 -8
30 -58 33 -99 23 -283 -14 -277 -31 -338 -102 -380 -37 -22 -149 -23 -200 -2
-31 13 -43 27 -65 74 -27 57 -27 61 -30 298 -3 237 -3 241 21 288 27 53 25 57
-18 23 l-29 -24 -32 24 c-17 13 -34 24 -37 24 -3 0 6 -21 21 -47 l27 -48 -1
-257 c-1 -288 -5 -306 -74 -341 -40 -20 -143 -18 -177 3 -59 37 -76 133 -71
392 3 161 6 198 21 226 19 35 13 40 -21 16 -21 -15 -25 -15 -41 0 -28 25 -31
19 -13 -21 13 -29 17 -71 18 -183 3 -367 -28 -446 -168 -420 -58 11 -91 30
-112 63 -23 37 -45 155 -56 308 -6 79 -15 173 -20 209 -14 99 -12 275 4 313
15 36 75 93 115 109 36 14 152 14 179 -1 19 -10 25 -8 52 23 43 49 107 71 205
70 61 0 92 -5 129 -22 42 -19 51 -20 65 -8 23 20 81 48 116 57 45 11 134 10
185 -2z m-2475 -139 c-6 -20 -11 -22 -57 -16 -28 4 -65 13 -82 20 -29 13 -28
13 29 9 33 -3 71 0 85 5 31 12 34 10 25 -18z m3192 -12 c-3 -7 -5 -2 -5 12 0
14 2 19 5 13 2 -7 2 -19 0 -25z m482 -448 c6 -77 6 -129 0 -135 -22 -22 -28
15 -22 145 4 74 8 131 9 125 2 -5 8 -66 13 -135z m-434 -128 c-3 -7 -10 -10
-16 -7 -11 8 -11 240 0 260 8 13 23 -235 16 -253z m174 118 c9 -113 3 -146
-20 -123 -7 7 -8 52 -3 139 9 146 10 145 23 -16z m523 -44 c2 -67 0 -81 -12
-81 -16 0 -16 -4 -11 168 3 94 4 98 11 48 5 -29 10 -90 12 -135z m259 14 c3
-79 2 -95 -11 -95 -11 0 -15 10 -13 35 0 19 2 80 3 135 2 79 4 92 10 60 4 -22
9 -83 11 -135z m173 -92 c-3 -5 -10 -6 -15 -3 -11 7 -12 248 -1 259 8 9 24
-243 16 -256z m81 225 c4 -21 11 -60 16 -86 20 -106 4 -287 -26 -287 -4 0 -4
48 -1 108 3 59 3 151 -2 205 -7 95 1 134 13 60z m-1300 -221 c-4 -11 -9 -12
-16 -5 -8 8 -9 49 -3 135 l8 123 9 -118 c5 -66 6 -126 2 -135z m176 96 c3 -86
2 -103 -11 -103 -8 0 -15 6 -14 13 1 6 2 65 3 130 3 140 17 116 22 -40z m782
30 c6 -122 4 -143 -14 -132 -11 7 -10 254 1 254 4 0 10 -55 13 -122z m173
-123 c-3 -9 -11 -13 -17 -9 -10 6 -9 85 2 234 1 14 6 -28 12 -92 5 -65 7 -124
3 -133z m-782 120 c7 -114 4 -141 -15 -129 -10 6 -8 244 2 244 3 0 9 -52 13
-115z m347 -10 c3 -68 0 -111 -6 -113 -6 -1 -11 45 -13 120 -2 76 1 119 7 113
5 -6 10 -59 12 -120z m178 -68 c1 -43 -2 -58 -11 -54 -14 4 -19 150 -9 217 5
29 7 22 12 -35 4 -38 7 -96 8 -128z m-436 66 c6 -107 4 -128 -14 -118 -11 8
-12 225 -1 225 5 0 12 -48 15 -107z m176 -60 c1 -28 -3 -55 -9 -58 -5 -3 -10
-3 -11 2 -2 21 -1 94 1 148 l3 60 7 -50 c5 -27 9 -73 9 -102z m-3399 57 c0
-29 -30 -38 -46 -15 -21 28 -17 35 16 35 23 0 30 -4 30 -20z m1010 -17 c0 -25
-1 -25 -18 -10 -33 30 -33 4 0 -30 l32 -33 -30 0 c-52 0 -72 44 -37 82 25 28
53 23 53 -9z m-1010 -53 c0 -15 -7 -20 -29 -20 -24 0 -28 3 -24 20 3 13 14 20
29 20 17 0 24 -6 24 -20z m945 -42 c8 -10 29 -18 46 -18 42 0 37 -34 -6 -38
-102 -10 -129 -21 -218 -97 -99 -83 -194 -133 -271 -142 -107 -13 -178 -64
-230 -168 -32 -63 -82 -115 -145 -153 -57 -34 -190 -44 -242 -18 -17 9 -38 16
-45 16 -7 0 -35 18 -62 40 -36 28 -60 58 -82 104 -31 61 -32 71 -28 149 5 90
26 146 76 201 37 39 105 82 110 68 2 -6 11 -3 23 9 15 15 33 19 93 19 120 0
206 -41 272 -131 68 -93 154 -120 271 -88 118 33 151 55 276 183 113 115 119
120 133 101 8 -11 21 -28 29 -37z m2646 -68 c217 -1 402 -6 410 -11 9 -5 -14
-9 -66 -9 -44 0 -267 -5 -495 -10 -665 -15 -683 -15 -688 -1 -13 38 0 40 225
36 120 -2 396 -4 614 -5z m434 -80 c3 -6 -4 -11 -17 -11 -121 -7 -409 -19
-573 -24 -88 -3 -203 -7 -255 -10 -52 -3 -170 -7 -262 -10 l-168 -5 0 30 0 30
248 2 c750 8 1021 8 1027 -2z m-1193 -132 c35 -29 80 -106 103 -180 30 -95 30
-91 5 -83 -19 6 -19 5 -5 -29 32 -75 7 -157 -65 -219 -55 -46 -76 -48 -86 -4
l-7 32 -12 -28 c-18 -44 -63 -86 -98 -92 -18 -3 -90 -4 -162 -3 -71 1 -172 -1
-223 -5 -140 -9 -215 21 -249 103 -17 39 -20 172 -5 210 32 82 156 113 341 85
58 -8 107 -12 110 -8 11 14 115 47 171 53 52 6 53 7 23 15 -18 4 -33 10 -33
13 0 10 101 141 113 146 23 9 63 6 79 -6z m-1165 -340 c-3 -7 -5 -2 -5 12 0
14 2 19 5 13 2 -7 2 -19 0 -25z m0 -50 c-3 -8 -6 -5 -6 6 -1 11 2 17 5 13 3
-3 4 -12 1 -19z m0 -55 c-3 -10 -5 -4 -5 12 0 17 2 24 5 18 2 -7 2 -21 0 -30z
m0 -80 c-3 -10 -5 -4 -5 12 0 17 2 24 5 18 2 -7 2 -21 0 -30z m0 -140 c-3 -10
-5 -4 -5 12 0 17 2 24 5 18 2 -7 2 -21 0 -30z m78 -43 c3 -5 1 -10 -4 -10 -6
0 -11 5 -11 10 0 6 2 10 4 10 3 0 8 -4 11 -10z m255 -21 c0 -4 -8 -15 -17 -24
-16 -16 -17 -16 -26 6 l-10 24 -6 -25 c-6 -20 -8 -22 -13 -9 -4 9 -2 21 3 26
11 11 69 13 69 2z m175 -139 c11 -17 -5 -32 -21 -19 -7 6 -11 15 -8 20 7 12
21 11 29 -1z m692 -162 c-3 -8 -6 -5 -6 6 -1 11 2 17 5 13 3 -3 4 -12 1 -19z
m-77 -138 c0 -5 -5 -10 -11 -10 -5 0 -7 5 -4 10 3 6 8 10 11 10 2 0 4 -4 4
-10z m-14 -86 c-4 -9 -9 -15 -11 -12 -3 3 -3 13 1 22 4 9 9 15 11 12 3 -3 3
-13 -1 -22z"/>
<path d="M1034 3777 c-54 -7 -68 -14 -118 -59 -80 -71 -100 -114 -100 -213 -1
-93 18 -137 81 -196 52 -49 80 -65 134 -76 95 -20 205 14 271 84 70 73 92 205
50 298 -57 124 -171 182 -318 162z"/>
<path d="M2341 2754 c-17 -7 -31 -15 -31 -17 0 -2 21 -4 48 -3 26 1 58 -3 72
-8 25 -8 25 -8 7 12 -24 26 -58 32 -96 16z"/>
<path d="M2712 2759 c-65 -26 -62 -34 14 -34 41 0 74 3 74 6 0 5 -31 23 -60
36 -3 1 -15 -3 -28 -8z"/>
<path d="M3528 2752 c-16 -9 -28 -20 -28 -25 0 -4 12 -4 28 0 15 5 58 8 95 8
66 0 68 0 46 18 -28 22 -105 22 -141 -1z"/>
<path d="M3063 2735 l-28 -25 30 7 c37 10 90 9 130 0 l30 -7 -28 25 c-20 18
-40 25 -67 25 -27 0 -47 -7 -67 -25z"/>
<path d="M2301 2684 c28 -30 77 -40 123 -24 50 16 45 26 -12 22 -26 -2 -67 3
-90 11 l-44 15 23 -24z"/>
<path d="M3651 2678 c-19 -5 -63 -8 -98 -6 -35 2 -63 0 -63 -4 0 -14 90 -40
117 -33 41 10 93 36 93 46 0 11 -4 10 -49 -3z"/>
<path d="M2640 2670 c0 -11 32 -29 73 -41 23 -6 41 -4 74 11 23 10 43 24 43
30 0 6 -4 9 -8 6 -18 -11 -120 -15 -151 -6 -18 5 -31 5 -31 0z"/>
<path d="M3010 2665 c0 -13 86 -45 122 -45 42 0 118 27 118 42 0 5 -9 6 -21 3
-27 -9 -126 -9 -178 0 -23 4 -41 4 -41 0z"/>
<path d="M1014 2931 c-44 -11 -121 -66 -154 -112 -84 -117 -56 -290 63 -377
90 -67 191 -79 289 -32 214 100 220 389 9 497 -65 34 -131 42 -207 24z"/>
<path d="M3289 2463 c-70 -20 -83 -41 -87 -137 -4 -110 13 -145 83 -167 59
-19 147 -12 172 14 12 12 18 40 21 105 5 105 -18 177 -60 186 -54 11 -86 11
-129 -1z m135 -50 c25 -42 32 -121 16 -173 -7 -23 -8 -21 -15 18 -10 58 -25
53 -25 -8 0 -58 -17 -68 -22 -12 -4 36 -9 33 -24 -15 -6 -21 -59 -15 -80 8
-15 17 -19 36 -18 91 1 79 12 97 71 108 52 10 85 4 97 -17z"/>
</g>
</svg>
